<?xml version="1.0" encoding="UTF-8"?>
<svg id="Ebene_2" data-name="Ebene 2" xmlns="http://www.w3.org/2000/svg" viewBox="0 0 125.74 125.55">
  <defs>
    <style>
      .cls-1 {
        fill: none;
        stroke: #000;
        stroke-linecap: round;
        stroke-miterlimit: 10;
        stroke-width: 8px;
      }
    </style>
  </defs>
  <g id="Design">
    <line class="cls-1" x1="76.02" y1="49.8" x2="4" y2="121.55"/>
    <path d="M124.61,21.2c-9.47-3.12-16.95-10.59-20.07-20.06C104.32.46,103.67,0,102.95,0h0c-.72,0-1.36.46-1.59,1.14-3.11,9.44-10.56,16.9-19.99,20.04-.46.15-.87.47-1.06.92-.4.95.09,1.98.98,2.27,9.47,3.12,16.95,10.59,20.07,20.06.23.68.87,1.14,1.59,1.14h0c.72,0,1.36-.46,1.59-1.14,3.11-9.44,10.56-16.9,19.99-20.04.46-.15.87-.47,1.06-.92.4-.95-.09-1.98-.98-2.27Z"/>
  </g>
</svg>