<svg xmlns="http://www.w3.org/2000/svg" viewBox="0 0 200 200" fill="none">
  <g stroke="currentColor" stroke-linecap="round" stroke-width="5.5">
    <!-- 0° oben — lang -->
    <line x1="100" y1="74" x2="100" y2="10"/>
    <!-- 15° — stub -->
    <line x1="104" y1="75" x2="107" y2="58"/>
    <!-- 30° — mittel -->
    <line x1="108" y1="77" x2="121" y2="45"/>
    <!-- 45° — mittel-lang -->
    <line x1="111.5" y1="81" x2="131.5" y2="61"/>
    <!-- 55° — kurz -->
    <line x1="113.5" y1="84" x2="126.5" y2="69"/>
    <!-- 65° — mittel -->
    <line x1="115.5" y1="87.5" x2="139.5" y2="65"/>
    <!-- 75° — stub -->
    <line x1="117" y1="92" x2="130" y2="84"/>
    <!-- 82° — kurz -->
    <line x1="117.5" y1="96" x2="133" y2="91"/>
    <!-- 90° rechts — lang -->
    <line x1="118" y1="100" x2="190" y2="100"/>
    <!-- 98° — kurz -->
    <line x1="117.5" y1="104" x2="133" y2="109"/>
    <!-- 105° — stub -->
    <line x1="117" y1="108" x2="130" y2="116"/>
    <!-- 115° — mittel -->
    <line x1="115.5" y1="112.5" x2="139.5" y2="135"/>
    <!-- 125° — kurz -->
    <line x1="113.5" y1="116" x2="126.5" y2="131"/>
    <!-- 135° — mittel-lang -->
    <line x1="111.5" y1="119" x2="131.5" y2="139"/>
    <!-- 150° — mittel -->
    <line x1="108" y1="123" x2="121" y2="155"/>
    <!-- 165° — stub -->
    <line x1="104" y1="125" x2="107" y2="142"/>
    <!-- 180° unten — lang -->
    <line x1="100" y1="126" x2="100" y2="190"/>
    <!-- 195° — stub -->
    <line x1="96" y1="125" x2="93" y2="142"/>
    <!-- 210° — mittel -->
    <line x1="92" y1="123" x2="79" y2="155"/>
    <!-- 225° — mittel-lang -->
    <line x1="88.5" y1="119" x2="68.5" y2="139"/>
    <!-- 235° — kurz -->
    <line x1="86.5" y1="116" x2="73.5" y2="131"/>
    <!-- 245° — mittel -->
    <line x1="84.5" y1="112.5" x2="60.5" y2="135"/>
    <!-- 255° — stub -->
    <line x1="83" y1="108" x2="70" y2="116"/>
    <!-- 262° — kurz -->
    <line x1="82.5" y1="104" x2="67" y2="109"/>
    <!-- 270° links — lang -->
    <line x1="82" y1="100" x2="10" y2="100"/>
    <!-- 278° — kurz -->
    <line x1="82.5" y1="96" x2="67" y2="91"/>
    <!-- 285° — stub -->
    <line x1="83" y1="92" x2="70" y2="84"/>
    <!-- 295° — mittel -->
    <line x1="84.5" y1="87.5" x2="60.5" y2="65"/>
    <!-- 305° — kurz -->
    <line x1="86.5" y1="84" x2="73.5" y2="69"/>
    <!-- 315° — mittel-lang -->
    <line x1="88.5" y1="81" x2="68.5" y2="61"/>
    <!-- 330° — mittel -->
    <line x1="92" y1="77" x2="79" y2="45"/>
    <!-- 345° — stub -->
    <line x1="96" y1="75" x2="93" y2="58"/>
  </g>
</svg>
