<?xml version="1.0" encoding="UTF-8"?>
<svg id="Ebene_2" data-name="Ebene 2" xmlns="http://www.w3.org/2000/svg" viewBox="0 0 148.57 212.32">
  <defs>
    <style>
      .cls-1 {
        fill: none;
        stroke: #000;
        stroke-linecap: round;
        stroke-miterlimit: 10;
        stroke-width: 8px;
      }
    </style>
  </defs>
  <g id="Design">
    <g>
      <circle cx="78.75" cy="196.57" r="15.75"/>
      <circle cx="16" cy="133.32" r="16"/>
      <line class="cls-1" x1="67.64" y1="185.06" x2="27.08" y2="144.87"/>
      <line class="cls-1" x1="98.86" y1="49.8" x2="26.84" y2="121.55"/>
      <path d="M147.45,21.2c-9.47-3.12-16.95-10.59-20.07-20.06C127.15.46,126.51,0,125.79,0h0c-.72,0-1.36.46-1.59,1.14-3.11,9.44-10.56,16.9-19.99,20.04-.46.15-.87.47-1.06.92-.4.95.09,1.98.98,2.27,9.47,3.12,16.95,10.59,20.07,20.06.23.68.87,1.14,1.59,1.14h0c.72,0,1.36-.46,1.59-1.14,3.11-9.44,10.56-16.9,19.99-20.04.46-.15.87-.47,1.06-.92.4-.95-.09-1.98-.98-2.27Z"/>
    </g>
  </g>
</svg>